<svg width="16" height="16" viewBox="0 0 16 16" fill="none" xmlns="http://www.w3.org/2000/svg">
<g id="Icons">
<path id="Vector" d="M1.33333 10.6669C1.33333 9.1076 1.33333 8.328 1.69098 7.7588C1.87747 7.462 2.12845 7.211 2.42526 7.02454C2.99445 6.66687 3.77407 6.66687 5.33333 6.66687H10.6667C12.2259 6.66687 13.0055 6.66687 13.5747 7.02454C13.8715 7.211 14.1225 7.462 14.309 7.7588C14.6667 8.328 14.6667 9.1076 14.6667 10.6669C14.6667 12.2261 14.6667 13.0057 14.309 13.5749C14.1225 13.8717 13.8715 14.1227 13.5747 14.3092C13.0055 14.6669 12.2259 14.6669 10.6667 14.6669H5.33333C3.77407 14.6669 2.99445 14.6669 2.42526 14.3092C2.12845 14.1227 1.87747 13.8717 1.69098 13.5749C1.33333 13.0057 1.33333 12.2261 1.33333 10.6669Z" stroke="#71717A" stroke-width="1.25" stroke-linecap="round" stroke-linejoin="round"/>
<path id="Vector_2" d="M13.3333 6.66691C13.3333 5.73349 13.3333 5.26678 13.1517 4.91026C12.9919 4.59666 12.7369 4.34169 12.4233 4.1819C12.0668 4.00024 11.6001 4.00024 10.6667 4.00024H5.33333C4.39991 4.00024 3.9332 4.00024 3.57668 4.1819C3.26308 4.34169 3.00811 4.59666 2.84832 4.91026C2.66667 5.26678 2.66667 5.73349 2.66667 6.66691" stroke="#71717A" stroke-width="1.25" stroke-linecap="round" stroke-linejoin="round"/>
<path id="Vector_3" d="M12 4.00028C12 2.7432 12 2.11466 11.6095 1.72414C11.2189 1.33362 10.5904 1.33362 9.33333 1.33362H6.66667C5.40959 1.33362 4.78105 1.33362 4.39053 1.72414C4 2.11466 4 2.7432 4 4.00028" stroke="#71717A" stroke-width="1.25" stroke-linecap="round" stroke-linejoin="round"/>
<path id="Vector_4" d="M10 9.33362C10 10.07 9.40307 10.667 8.66667 10.667H7.33333C6.59695 10.667 6 10.07 6 9.33362" stroke="#71717A" stroke-width="1.25" stroke-linecap="round"/>
</g>
</svg>
