<svg width="16" height="16" viewBox="0 0 16 16" fill="none" xmlns="http://www.w3.org/2000/svg">
<g id="Icons">
<path id="Vector" d="M1.33333 4.00028C1.33333 2.7432 1.33333 2.11466 1.72386 1.72414C2.11438 1.33362 2.74292 1.33362 4 1.33362C5.25708 1.33362 5.88562 1.33362 6.27614 1.72414C6.66667 2.11466 6.66667 2.7432 6.66667 4.00028V5.33362C6.66667 6.5907 6.66667 7.21922 6.27614 7.60975C5.88562 8.00028 5.25708 8.00028 4 8.00028C2.74292 8.00028 2.11438 8.00028 1.72386 7.60975C1.33333 7.21922 1.33333 6.5907 1.33333 5.33362V4.00028Z" stroke="#3F3F46" stroke-width="1.25"/>
<path id="Vector_2" d="M1.33333 12.6669C1.33333 12.0456 1.33333 11.735 1.43483 11.4899C1.57015 11.1633 1.82972 10.9037 2.15642 10.7683C2.40145 10.6669 2.71208 10.6669 3.33333 10.6669H4.66667C5.28792 10.6669 5.59855 10.6669 5.84358 10.7683C6.17028 10.9037 6.42985 11.1633 6.56517 11.4899C6.66667 11.735 6.66667 12.0456 6.66667 12.6669C6.66667 13.2881 6.66667 13.5987 6.56517 13.8438C6.42985 14.1705 6.17028 14.4301 5.84358 14.5654C5.59855 14.6669 5.28792 14.6669 4.66667 14.6669H3.33333C2.71208 14.6669 2.40145 14.6669 2.15642 14.5654C1.82972 14.4301 1.57015 14.1705 1.43483 13.8438C1.33333 13.5987 1.33333 13.2881 1.33333 12.6669Z" stroke="#3F3F46" stroke-width="1.25"/>
<path id="Vector_3" d="M9.33334 10.6669C9.33334 9.40984 9.33334 8.78131 9.72387 8.39078C10.1144 8.00024 10.7429 8.00024 12 8.00024C13.2571 8.00024 13.8856 8.00024 14.2761 8.39078C14.6667 8.78131 14.6667 9.40984 14.6667 10.6669V12.0002C14.6667 13.2573 14.6667 13.8858 14.2761 14.2764C13.8856 14.6669 13.2571 14.6669 12 14.6669C10.7429 14.6669 10.1144 14.6669 9.72387 14.2764C9.33334 13.8858 9.33334 13.2573 9.33334 12.0002V10.6669Z" stroke="#3F3F46" stroke-width="1.25"/>
<path id="Vector_4" d="M9.33334 3.33362C9.33334 2.71236 9.33334 2.40174 9.4348 2.1567C9.57014 1.83 9.82974 1.57044 10.1564 1.43511C10.4015 1.33362 10.7121 1.33362 11.3333 1.33362H12.6667C13.2879 1.33362 13.5985 1.33362 13.8436 1.43511C14.1703 1.57044 14.4299 1.83 14.5652 2.1567C14.6667 2.40174 14.6667 2.71236 14.6667 3.33362C14.6667 3.95487 14.6667 4.2655 14.5652 4.51053C14.4299 4.83723 14.1703 5.0968 13.8436 5.23213C13.5985 5.33362 13.2879 5.33362 12.6667 5.33362H11.3333C10.7121 5.33362 10.4015 5.33362 10.1564 5.23213C9.82974 5.0968 9.57014 4.83723 9.4348 4.51053C9.33334 4.2655 9.33334 3.95487 9.33334 3.33362Z" stroke="#3F3F46" stroke-width="1.25"/>
</g>
</svg>
