<svg width="16" height="16" viewBox="0 0 16 16" fill="none" xmlns="http://www.w3.org/2000/svg">
<path d="M9.38214 2.59031C9.87894 2.05206 10.1273 1.78294 10.3913 1.62596C11.0281 1.24718 11.8124 1.2354 12.4599 1.59489C12.7283 1.74388 12.9843 2.00542 13.4963 2.52852C14.0084 3.05161 14.2645 3.31316 14.4103 3.5873C14.7622 4.24876 14.7507 5.04987 14.3799 5.70048C14.2262 5.97012 13.9627 6.22386 13.4359 6.73134L7.16674 12.7695C6.16826 13.7313 5.66901 14.2121 5.04505 14.4558C4.42109 14.6995 3.73514 14.6816 2.36325 14.6457L2.1766 14.6409C1.75895 14.6299 1.55012 14.6245 1.42874 14.4867C1.30734 14.3489 1.32392 14.1362 1.35706 13.7108L1.37506 13.4798C1.46835 12.2823 1.51499 11.6837 1.74882 11.1455C1.98264 10.6073 2.38597 10.1703 3.19263 9.29634L9.38214 2.59031Z" stroke="#A1A1AA" stroke-linejoin="round"/>
<path d="M8.66699 2.66666L13.3337 7.33332" stroke="#A1A1AA" stroke-linejoin="round"/>
<path d="M9.33301 14.6667H14.6663" stroke="#A1A1AA" stroke-linecap="round" stroke-linejoin="round"/>
</svg>
