<svg width="20" height="20" viewBox="0 0 20 20" fill="none" xmlns="http://www.w3.org/2000/svg">
<path d="M2.08301 10.0001C2.08301 6.26815 2.08301 4.40218 3.24237 3.2428C4.40175 2.08343 6.26772 2.08344 9.99967 2.08344C13.7316 2.08344 15.5976 2.08343 16.757 3.2428C17.9163 4.40218 17.9163 6.26815 17.9163 10.0001C17.9163 13.732 17.9163 15.598 16.757 16.7574C15.5976 17.9168 13.7316 17.9168 9.99967 17.9168C6.26772 17.9168 4.40175 17.9168 3.24237 16.7574C2.08301 15.598 2.08301 13.732 2.08301 10.0001Z" stroke="#18181B" stroke-width="1.25"/>
<path d="M6.25 14.1668C8.19308 12.1316 11.786 12.0358 13.75 14.1668M12.0792 7.91677C12.0792 9.06735 11.1452 10.0001 9.99292 10.0001C8.84075 10.0001 7.90664 9.06735 7.90664 7.91677C7.90664 6.76618 8.84075 5.83344 9.99292 5.83344C11.1452 5.83344 12.0792 6.76618 12.0792 7.91677Z" stroke="#18181B" stroke-width="1.25" stroke-linecap="round"/>
</svg>
